<mxfile host="app.diagrams.net" agent="Mozilla/5.0 (X11; Linux x86_64) AppleWebKit/537.36 (KHTML, like Gecko) Chrome/131.0.0.0 Safari/537.36" version="25.0.3">
  <diagram name="Page-1" id="ui2-QFB9wQMF3MDMqK_j">
    <mxGraphModel dx="1195" dy="759" grid="1" gridSize="10" guides="1" tooltips="1" connect="1" arrows="1" fold="1" page="1" pageScale="1" pageWidth="827" pageHeight="1169" math="0" shadow="0">
      <root>
        <mxCell id="0" />
        <mxCell id="1" parent="0" />
        <mxCell id="gXeWWW7yNshQ4TGBJFdl-6" style="edgeStyle=orthogonalEdgeStyle;rounded=0;orthogonalLoop=1;jettySize=auto;html=1;exitX=0.75;exitY=0;exitDx=0;exitDy=0;entryX=0.75;entryY=1;entryDx=0;entryDy=0;" edge="1" parent="1" source="gXeWWW7yNshQ4TGBJFdl-1" target="gXeWWW7yNshQ4TGBJFdl-2">
          <mxGeometry relative="1" as="geometry" />
        </mxCell>
        <mxCell id="gXeWWW7yNshQ4TGBJFdl-19" value="Return" style="edgeLabel;html=1;align=center;verticalAlign=middle;resizable=0;points=[];" vertex="1" connectable="0" parent="gXeWWW7yNshQ4TGBJFdl-6">
          <mxGeometry x="0.1067" y="-3" relative="1" as="geometry">
            <mxPoint as="offset" />
          </mxGeometry>
        </mxCell>
        <mxCell id="gXeWWW7yNshQ4TGBJFdl-9" style="edgeStyle=orthogonalEdgeStyle;rounded=0;orthogonalLoop=1;jettySize=auto;html=1;exitX=1;exitY=0.25;exitDx=0;exitDy=0;entryX=0;entryY=0.25;entryDx=0;entryDy=0;" edge="1" parent="1" source="gXeWWW7yNshQ4TGBJFdl-1" target="gXeWWW7yNshQ4TGBJFdl-7">
          <mxGeometry relative="1" as="geometry" />
        </mxCell>
        <mxCell id="gXeWWW7yNshQ4TGBJFdl-17" value="Text" style="edgeLabel;html=1;align=center;verticalAlign=middle;resizable=0;points=[];" vertex="1" connectable="0" parent="gXeWWW7yNshQ4TGBJFdl-9">
          <mxGeometry x="-0.2147" y="-2" relative="1" as="geometry">
            <mxPoint y="1" as="offset" />
          </mxGeometry>
        </mxCell>
        <mxCell id="gXeWWW7yNshQ4TGBJFdl-1" value="backend" style="rounded=0;whiteSpace=wrap;html=1;" vertex="1" parent="1">
          <mxGeometry x="140" y="280" width="120" height="130" as="geometry" />
        </mxCell>
        <mxCell id="gXeWWW7yNshQ4TGBJFdl-5" style="edgeStyle=orthogonalEdgeStyle;rounded=0;orthogonalLoop=1;jettySize=auto;html=1;exitX=0.25;exitY=1;exitDx=0;exitDy=0;entryX=0.25;entryY=0;entryDx=0;entryDy=0;" edge="1" parent="1" source="gXeWWW7yNshQ4TGBJFdl-2" target="gXeWWW7yNshQ4TGBJFdl-1">
          <mxGeometry relative="1" as="geometry" />
        </mxCell>
        <mxCell id="gXeWWW7yNshQ4TGBJFdl-18" value="HTTP" style="edgeLabel;html=1;align=center;verticalAlign=middle;resizable=0;points=[];" vertex="1" connectable="0" parent="gXeWWW7yNshQ4TGBJFdl-5">
          <mxGeometry x="-0.1867" y="3" relative="1" as="geometry">
            <mxPoint as="offset" />
          </mxGeometry>
        </mxCell>
        <mxCell id="gXeWWW7yNshQ4TGBJFdl-2" value="frontend" style="rounded=0;whiteSpace=wrap;html=1;" vertex="1" parent="1">
          <mxGeometry x="140" y="70" width="120" height="60" as="geometry" />
        </mxCell>
        <mxCell id="gXeWWW7yNshQ4TGBJFdl-16" style="edgeStyle=orthogonalEdgeStyle;rounded=0;orthogonalLoop=1;jettySize=auto;html=1;exitX=0;exitY=0.5;exitDx=0;exitDy=0;entryX=1;entryY=0.75;entryDx=0;entryDy=0;" edge="1" parent="1" source="gXeWWW7yNshQ4TGBJFdl-7" target="gXeWWW7yNshQ4TGBJFdl-1">
          <mxGeometry relative="1" as="geometry" />
        </mxCell>
        <mxCell id="gXeWWW7yNshQ4TGBJFdl-7" value="OpenAI" style="rounded=0;whiteSpace=wrap;html=1;" vertex="1" parent="1">
          <mxGeometry x="650" y="280" width="120" height="200" as="geometry" />
        </mxCell>
        <mxCell id="gXeWWW7yNshQ4TGBJFdl-8" value="Pinecode Vector database" style="shape=cylinder3;whiteSpace=wrap;html=1;boundedLbl=1;backgroundOutline=1;size=15;" vertex="1" parent="1">
          <mxGeometry x="150" y="495" width="110" height="90" as="geometry" />
        </mxCell>
      </root>
    </mxGraphModel>
  </diagram>
</mxfile>
